<svg width="61" height="58" viewBox="0 0 61 58" fill="none" xmlns="http://www.w3.org/2000/svg">
<path d="M30.4528 0.539551C13.911 0.539551 0.453125 13.9974 0.453125 30.5395C0.453125 41.7016 6.59175 51.8739 16.4732 57.0867L17.2605 57.5019H43.6456L44.4328 57.0867C54.3147 51.8737 60.4531 41.7013 60.4531 30.5395C60.4531 13.9974 46.9951 0.539551 30.4528 0.539551ZM41.8316 50.3134H36.2744L35.0308 41.4124C35.8545 41.2647 36.6896 41.08 37.5426 40.8519C37.9796 40.7349 38.3414 40.4279 38.5277 40.0155C41.3114 33.8539 42.4172 28.1045 42.0081 21.9223C41.9656 21.2845 41.5264 20.7425 40.9113 20.5694C37.3324 19.5632 33.9118 19.0737 30.4531 19.0737C26.9948 19.0737 23.5741 19.563 19.9955 20.5694C19.3802 20.7425 18.941 21.2843 18.8984 21.9223C18.4893 28.1045 19.5952 33.8539 22.3788 40.0155C22.5652 40.4284 22.927 40.7352 23.3644 40.8519C24.2172 41.08 25.052 41.2646 25.8755 41.412L24.6319 50.3133H19.075C14.1459 47.4745 10.5374 42.9723 8.80107 37.7293C11.8114 37.2988 14.8236 36.9582 17.837 36.7072C16.6876 33.2695 16.0344 29.8913 15.8519 26.4364C12.8619 27.1226 10.0298 28.1787 7.65548 29.8006C8.04695 17.5632 18.1224 7.72808 30.4533 7.72808C42.7855 7.72808 52.8621 17.565 53.2519 29.8043C53.0162 29.6426 52.7664 29.4846 52.5009 29.3318C50.2336 28.0261 47.6963 27.1259 45.0516 26.5057C44.864 29.9351 44.2122 33.2903 43.0711 36.7041C46.0846 36.9543 49.0974 37.2939 52.108 37.7236C50.3717 42.9694 46.7624 47.4738 41.8316 50.3134Z" fill="#015D2B"/>
</svg>
