<svg width="80" height="65" viewBox="0 0 80 65" fill="none" xmlns="http://www.w3.org/2000/svg">
<g id="Car 3">
<g id="Car">
<g id="Group 27">
<g id="Vector 10" filter="url(#filter0_f_219_1055)">
<path d="M61.3833 56.1424C64.4242 55.2244 69.9602 52.7159 71.9499 50.8593C74.2442 48.9159 70.4395 46.5751 69.8748 46.2475C69.3102 45.9198 33.0862 27.8642 28.2466 25.7346C23.4069 23.6049 11.0229 31.1091 7.31202 33.1691C4.28722 34.8482 6.42475 36.0359 6.82805 36.3635C7.23136 36.6912 34.9264 51.0231 43.2345 54.9547C49.5262 57.9322 55.4143 57.9444 61.3833 56.1424Z" fill="black" fill-opacity="0.2"/>
</g>
<g id="Group 12">
<path id="Union" fill-rule="evenodd" clip-rule="evenodd" d="M35.0313 38.318L38.741 36.5977L38.7421 36.6001C38.7657 36.5886 38.7896 36.5774 38.8137 36.5666C41.0234 35.575 44.1758 37.8216 45.8547 41.5846C47.5336 45.3475 47.1033 49.2019 44.8936 50.1935C44.8617 50.2078 44.8295 50.2215 44.7972 50.2345L41.2248 51.8935L39.2399 47.5428C38.7176 46.8511 38.2449 46.0547 37.8527 45.1756C37.4909 44.3648 37.2271 43.5498 37.0579 42.76L35.0313 38.318Z" fill="black"/>
<ellipse id="Ellipse 6" cx="4.3872" cy="7.45201" rx="4.3872" ry="7.45201" transform="matrix(-0.911976 0.409256 0.40762 0.913593 39.1377 36.4873)" fill="black"/>
<g id="Ellipse 7" filter="url(#filter1_i_219_1055)">
<ellipse cx="3.29056" cy="5.58927" rx="3.29056" ry="5.58927" transform="matrix(-0.911976 0.409256 0.40762 0.913593 38.7705 38.6416)" fill="url(#paint0_linear_219_1055)"/>
</g>
<g id="Subtract" filter="url(#filter2_di_219_1055)">
<path fill-rule="evenodd" clip-rule="evenodd" d="M38.1567 41.0985C38.6398 41.3789 39.1169 41.8002 39.5468 42.3331L38.5875 43.9993C38.452 43.8402 38.3057 43.7093 38.1567 43.6123L38.1567 41.0985ZM38.1567 46.7485C38.3769 46.841 38.5944 46.8541 38.7834 46.7693L38.7924 46.7652L40.1928 49.1979C40.1137 49.2517 40.03 49.2986 39.9417 49.3382C39.406 49.5787 38.7814 49.5139 38.1567 49.2071L38.1567 46.7485ZM37.9876 49.1181L37.9876 46.6621C37.818 46.5602 37.6508 46.4138 37.4978 46.2314L36.5572 47.8653C36.9993 48.4114 37.4909 48.8396 37.9876 49.1181ZM37.9876 43.5175L37.9876 41.0062C37.3471 40.6791 36.7044 40.6047 36.1551 40.8512C36.0023 40.9198 35.8631 41.0103 35.7379 41.1203L37.1534 43.5791C37.2016 43.5369 37.2552 43.5022 37.314 43.4758C37.5164 43.3849 37.7515 43.4064 37.9876 43.5175ZM35.5545 46.2139C35.8053 46.7758 36.1088 47.2835 36.4444 47.722L37.3855 46.0873C37.2714 45.9301 37.168 45.7519 37.0809 45.5568C37.0673 45.5263 37.0543 45.4957 37.0418 45.4651L35.4225 45.9003C35.4639 46.0048 35.5079 46.1094 35.5545 46.2139ZM38.7005 44.1421L39.6593 42.4766C39.9922 42.9131 40.2932 43.4176 40.5422 43.9756C40.5921 44.0875 40.639 44.1994 40.683 44.3113L39.044 44.7518C39.0351 44.7306 39.0259 44.7094 39.0165 44.6882C38.9266 44.4867 38.8191 44.3031 38.7005 44.1421ZM35.3615 45.7413C35.0664 44.9464 34.921 44.1592 34.9172 43.4514L36.8354 44.5621C36.8452 44.7958 36.8934 45.0491 36.9819 45.3059L35.3615 45.7413ZM39.1055 44.9105C39.2122 45.2104 39.264 45.5063 39.2639 45.7726L41.1784 46.8812C41.1948 46.1437 41.0529 45.3117 40.7435 44.4704L39.1055 44.9105ZM41.1705 47.0722L39.2544 45.9628C39.2232 46.2694 39.1149 46.5222 38.935 46.6738L40.3288 49.095C40.8308 48.6742 41.1171 47.9487 41.1705 47.0722ZM34.9197 43.2573L36.8364 44.3671C36.8507 44.106 36.9177 43.8788 37.0347 43.7121L35.6125 41.2417C35.1827 41.6998 34.9469 42.4148 34.9197 43.2573Z" fill="#4C4C4C"/>
</g>
</g>
<path id="Union_2" fill-rule="evenodd" clip-rule="evenodd" d="M35.0313 38.2395L38.7409 36.5192L38.742 36.5216C38.7651 36.5105 38.7884 36.4996 38.8119 36.4891C41.0216 35.4974 44.1739 37.744 45.8528 41.507C47.5317 45.27 47.1014 49.1244 44.8917 50.116C44.8591 50.1306 44.8264 50.1445 44.7934 50.1577L41.2247 51.815L39.2438 47.4729C38.7192 46.7795 38.2445 45.9805 37.8508 45.0981C37.4876 44.2841 37.2231 43.4658 37.054 42.6732L35.0313 38.2395Z" fill="black"/>
<path id="Ellipse 10" d="M34.1461 46.8864C35.8238 50.6464 38.9751 52.8906 41.1848 51.899C43.3945 50.9074 43.8258 47.0554 42.1482 43.2954C40.4706 39.5354 37.2244 37.0888 35.0147 38.0804C32.805 39.072 32.4685 43.1264 34.1461 46.8864Z" fill="#242424"/>
<g id="Ellipse 11" filter="url(#filter3_i_219_1055)">
<ellipse cx="3.08414" cy="5.3898" rx="3.08414" ry="5.3898" transform="matrix(-0.939744 0.342056 0.316393 0.948614 39.2812 38.9263)" fill="url(#paint1_linear_219_1055)"/>
</g>
<g id="Subtract_2" filter="url(#filter4_di_219_1055)">
<path fill-rule="evenodd" clip-rule="evenodd" d="M36.0092 46.0666C36.69 47.9247 38.0261 49.1389 39.1369 48.9329L38.4738 46.991C37.9867 46.9854 37.4418 46.476 37.1226 45.7127L36.0092 46.0666ZM35.8516 45.5832C35.3259 43.7504 35.6356 42.0091 36.574 41.427L37.2374 43.3699C36.8763 43.701 36.7613 44.4405 36.9616 45.2304L35.8516 45.5832ZM39.0888 44.5541C38.7773 43.7473 38.2142 43.2009 37.711 43.1892L37.0473 41.2456C38.1734 41.0468 39.5273 42.3009 40.1953 44.2024L39.0888 44.5541ZM39.2367 45.0407L40.3465 44.6878C40.8347 46.4807 40.524 48.1688 39.6087 48.7473L38.9453 46.8044C39.2877 46.4835 39.405 45.7913 39.2367 45.0407Z" fill="#A9A8A8"/>
</g>
</g>
<g id="Group 28">
<g id="Group 12_2">
<path id="Union_3" fill-rule="evenodd" clip-rule="evenodd" d="M9.07269 27.4069L11.8517 26.1182L11.8521 26.1189C11.8693 26.1105 11.8867 26.1024 11.9043 26.0945C13.5596 25.3517 15.9212 27.0347 17.1789 29.8537C18.4367 32.6726 18.1143 35.5601 16.4589 36.303C16.4423 36.3104 16.4256 36.3177 16.4088 36.3246L13.7124 37.5768L12.2281 34.3233C11.835 33.8037 11.4793 33.205 11.1843 32.5438C10.9121 31.9339 10.714 31.3207 10.5873 30.7267L9.07269 27.4069Z" fill="black"/>
<ellipse id="Ellipse 6_2" cx="3.28662" cy="5.58259" rx="3.28662" ry="5.58259" transform="matrix(-0.945518 0.324327 0.32255 0.946978 12.7334 26.1284)" fill="black"/>
<g id="Ellipse 7_2" filter="url(#filter5_i_219_1055)">
<ellipse cx="2.46509" cy="4.18714" rx="2.46509" ry="4.18714" transform="matrix(-0.911976 0.409256 0.40762 0.913593 11.873 27.6489)" fill="url(#paint2_linear_219_1055)"/>
</g>
<g id="Subtract_3" filter="url(#filter6_di_219_1055)">
<path fill-rule="evenodd" clip-rule="evenodd" d="M11.4527 29.5147C11.7996 29.7242 12.1413 30.0301 12.4504 30.413L11.7321 31.6608C11.6437 31.5573 11.5493 31.4697 11.4527 31.401L11.4527 29.5147ZM11.4527 33.7382C11.5898 33.7875 11.7245 33.7946 11.8453 33.7514L12.8987 35.5812C12.8504 35.6116 12.8 35.6387 12.7474 35.6623C12.3582 35.8369 11.9065 35.7966 11.4527 35.5844L11.4527 33.7382ZM11.2836 35.4974L11.2836 33.6569C11.1669 33.5867 11.0518 33.4885 10.945 33.3671L10.2395 34.5926C10.5635 34.9856 10.9218 35.2946 11.2836 35.4974ZM11.2836 31.3012L11.2836 29.4204C10.8037 29.1753 10.3222 29.1196 9.91066 29.3043C9.79573 29.3559 9.6911 29.4241 9.59699 29.5069L10.6574 31.3489C10.694 31.3167 10.7347 31.2902 10.7793 31.2701C10.9309 31.2021 11.1069 31.2181 11.2836 31.3012ZM9.46079 33.3217C9.64836 33.7421 9.87537 34.1219 10.1263 34.4501L10.8317 33.2249C10.7467 33.1075 10.6696 32.9746 10.6048 32.8291L10.5918 32.7996L9.37755 33.1259C9.40394 33.1912 9.43169 33.2564 9.46079 33.3217ZM11.844 31.8054L12.5626 30.5573C12.8013 30.8761 13.0174 31.2418 13.1973 31.6449C13.2346 31.7285 13.2696 31.8122 13.3025 31.8958L12.0752 32.2256C12.0686 32.2099 12.0618 32.1942 12.0547 32.1784C11.994 32.0423 11.9226 31.9171 11.844 31.8054ZM9.31599 32.9671C9.10194 32.3904 8.99306 31.8191 8.98388 31.3021L10.4238 32.1358C10.4355 32.2961 10.4707 32.4674 10.5304 32.6408L9.31599 32.9671ZM12.1352 32.3848C12.206 32.5962 12.2403 32.8039 12.2401 32.9919L13.6738 33.8221C13.6859 33.281 13.5843 32.672 13.3624 32.0551L12.1352 32.3848ZM13.6647 34.0124L12.2273 33.1801C12.198 33.3896 12.1185 33.5616 11.9921 33.6672L13.0362 35.481C13.4039 35.1735 13.6174 34.6483 13.6647 34.0124ZM8.98522 31.1072L10.4215 31.9389C10.4309 31.7641 10.4719 31.6094 10.543 31.4892L9.47321 29.631C9.17078 29.9751 9.00484 30.4965 8.98522 31.1072Z" fill="#4C4C4C"/>
</g>
</g>
<path id="Union_4" fill-rule="evenodd" clip-rule="evenodd" d="M12.2247 34.2635C11.8317 33.744 11.4762 33.1455 11.1813 32.4846C10.9093 31.8749 10.7112 31.262 10.5845 30.6683L9.06968 27.348L11.8487 26.0593L11.8489 26.0597C11.8662 26.0513 11.8837 26.0431 11.9013 26.0352C13.5567 25.2923 15.9182 26.9754 17.1759 29.7944C18.4336 32.6134 18.1113 35.5008 16.4559 36.2437C16.4423 36.2498 16.4287 36.2557 16.4151 36.2615L13.7094 37.5179L12.2247 34.2635Z" fill="black"/>
<path id="Ellipse 10_2" d="M8.08264 33.3129C8.82834 36.3058 11.0098 38.3355 12.955 37.8464C14.9003 37.3573 15.8727 34.5345 15.127 31.5416C14.3813 28.5487 12.1561 26.3573 10.2108 26.8464C8.26558 27.3355 7.33694 30.3199 8.08264 33.3129Z" fill="#242424"/>
<g id="Ellipse 11_2" filter="url(#filter7_i_219_1055)">
<ellipse cx="2.31045" cy="4.03771" rx="2.31045" ry="4.03771" transform="matrix(-0.963522 0.267857 0.241582 0.970366 12.4014 28.1152)" fill="url(#paint3_linear_219_1055)"/>
</g>
<g id="Subtract_4" filter="url(#filter8_di_219_1055)">
<path fill-rule="evenodd" clip-rule="evenodd" d="M9.57956 33.3821C9.97478 34.6705 10.8005 35.5694 11.5809 35.5885L11.1897 34.0634C10.8975 33.9626 10.6126 33.6335 10.4369 33.1815L9.57956 33.3821ZM9.45407 32.8893C9.18394 31.5654 9.46733 30.3463 10.1209 29.897L10.5117 31.4205C10.2972 31.6857 10.2111 32.1672 10.3014 32.691L9.45407 32.8893ZM11.9297 32.31C11.7442 31.6893 11.3557 31.2482 10.9806 31.2098L10.5985 29.72C11.4514 29.6358 12.3904 30.6515 12.7788 32.1114L11.9297 32.31ZM12.0266 32.8096L12.8858 32.6085C13.1031 33.927 12.7706 35.1068 12.0741 35.4729L11.6916 33.9814C11.945 33.7781 12.0733 33.327 12.0266 32.8096Z" fill="#A9A8A8"/>
</g>
</g>
<g id="Vector 48" filter="url(#filter9_ii_219_1055)">
<path d="M6.56814 30.8886C6.59783 31.2737 6.7584 31.5999 6.97893 31.8675C7.19214 32.1263 7.6043 31.9689 7.65886 31.6381C7.70305 31.3703 7.76284 30.9714 7.84554 30.3585C8.16312 28.0052 9.82894 27.0989 10.8407 27.3203C11.9906 27.5718 13.0203 28.5221 13.6387 30.1104C14.1375 31.3912 14.4378 32.1149 14.808 35.0232C14.8186 35.1071 14.8533 35.1838 14.9232 35.2315C16.4271 36.2564 33.5074 44.9345 33.4504 44.7291C33.2961 44.1735 33.2923 41.5449 33.8456 40.2633C34.9324 37.7458 36.6289 37.9859 37.5408 38.1252C38.5073 38.2729 40.7534 39.4519 41.9197 41.8244C43.7692 45.5867 43.3094 48.1422 43.7692 49.4867C43.92 49.9279 51.2754 52.7134 53.8912 53.3697C60.432 55.3189 69.6701 48.6782 71.4126 47.392C73.1551 46.1059 73.2968 42.3241 73.0407 38.1252C73.0446 35.6712 72.5193 34.399 72.1436 34.0074C70.3469 32.1347 66.0846 29.0981 63.3578 27.6324C63.3128 27.6083 63.2718 27.5759 63.2373 27.5382C56.5746 20.2713 56.1497 19.3653 53.856 18.2507C49.1942 15.9852 30.2125 8.2776 26.0389 8.2776C23.5728 8.2776 14.8907 11.0816 12.5456 12.869C10.6876 14.2851 8.90726 17.4232 7.96033 19.4797C7.94176 19.52 7.92998 19.5601 7.92424 19.6041C7.73831 21.0296 7.37902 25.2379 7.00149 25.6473C6.52225 26.1671 6.50439 30.0618 6.56814 30.8886Z" fill="url(#paint4_linear_219_1055)"/>
</g>
<mask id="mask0_219_1055" style="mask-type:alpha" maskUnits="userSpaceOnUse" x="6" y="8" width="68" height="46">
<path id="Vector 55" d="M6.56775 30.8891C6.59744 31.2742 6.75801 31.6003 6.97855 31.868C7.19175 32.1267 7.58565 31.9655 7.63439 31.6338C7.67334 31.3686 7.72867 30.9759 7.80948 30.3771C8.12706 28.0238 9.82855 27.0994 10.8403 27.3207C11.9902 27.5722 13.0199 28.5225 13.6384 30.1109C14.1371 31.3917 14.4374 32.1153 14.8076 35.0237C14.8182 35.1076 14.8529 35.1843 14.9228 35.2319C16.4267 36.2569 33.507 44.935 33.45 44.7296C33.2957 44.1739 33.2919 41.5454 33.8452 40.2637C34.932 37.7463 36.6285 37.9863 37.5404 38.1257C38.5069 38.2733 40.753 39.4523 41.9193 41.8248C43.7688 45.5872 43.309 48.1427 43.7688 49.4872C43.9196 49.9283 51.275 52.7138 53.8908 53.3701C60.4316 55.3193 69.6697 48.6786 71.4122 47.3925C73.1547 46.1063 73.2965 42.3245 73.0403 38.1257C73.0442 35.6716 72.5189 34.3994 72.1432 34.0078C70.3465 32.1351 66.0842 29.0986 63.3574 27.6329C63.3124 27.6087 63.2715 27.5763 63.2369 27.5387C56.5732 20.2717 55.9627 19.3488 52.6263 17.7275C47.9644 15.462 30.2121 8.27803 26.0385 8.27803C23.5724 8.27803 14.8903 11.082 12.5452 12.8695C10.6873 14.2856 8.90687 17.4236 7.95994 19.4802C7.94137 19.5205 7.92959 19.5605 7.92385 19.6045C7.73792 21.0301 7.37864 25.2383 7.0011 25.6478C6.52187 26.1675 6.504 30.0623 6.56775 30.8891Z" fill="url(#paint5_linear_219_1055)"/>
</mask>
<g mask="url(#mask0_219_1055)">
<g id="Mask Group">
<g id="Vector 57" filter="url(#filter10_ddii_219_1055)">
<path d="M58.5921 42.8871C56.8835 43.0099 53.793 43.3518 50.6817 41.64C50.3792 41.4735 49.8767 41.9151 50.0282 42.2254C50.5605 43.3161 51.1824 44.5292 51.7604 44.8308C52.8844 45.4173 56.1073 46.5202 59.1975 45.9666C59.2126 45.9639 59.2276 45.962 59.2428 45.9629C59.5763 45.9831 60.4085 46.6304 61.1479 46.9155C62.3174 47.2403 67.4376 44.4611 68.7282 43.7317C71.453 42.192 72.3839 41.0634 72.529 40.7646C72.7557 40.2978 72.603 39.333 72.6481 39.0319C72.6852 38.7845 72.9174 38.2563 72.999 38.0759C73.0176 38.0349 73.0274 37.9914 73.0268 37.9464C73.0237 37.6739 72.9998 36.6308 72.8183 35.7948C72.8135 35.7726 72.811 35.7498 72.8108 35.7271C72.8012 34.1649 72.139 33.1036 72.1392 33.9206C72.1392 35.0503 71.8475 36.407 71.0304 37.0606C71.0117 37.0755 70.9988 37.0874 70.9794 37.1014C70.4382 37.4896 61.0043 42.7137 58.5921 42.8871Z" fill="#272727"/>
</g>
<mask id="mask1_219_1055" style="mask-type:alpha" maskUnits="userSpaceOnUse" x="49" y="33" width="25" height="14">
<path id="Vector 50" d="M58.5921 42.8871C56.8185 43.0145 53.5561 43.3781 50.3269 41.4357C50.1012 41.3 49.734 41.6205 49.8492 41.8574C50.4176 43.0266 51.1163 44.4947 51.7604 44.8308C52.885 45.4177 56.111 46.5215 59.2029 45.9656C59.2144 45.9636 59.2256 45.9621 59.2373 45.9626C59.567 45.9759 60.4044 46.6289 61.1479 46.9155C62.3174 47.2403 67.4376 44.4611 68.7282 43.7317C71.453 42.192 72.5031 40.9768 72.6481 40.678C72.8748 40.2111 72.603 39.2788 72.6481 38.9778C72.6858 38.7266 72.9246 38.2236 73.0026 38.0639C73.0188 38.0308 73.0273 37.995 73.027 37.9582C73.0244 37.7045 73.0024 36.6368 72.8166 35.7869C72.8128 35.77 72.811 35.7526 72.8109 35.7353C72.8035 34.1686 72.139 33.1022 72.1392 33.9206C72.1392 35.0534 71.8459 36.4144 71.0237 37.0659C71.0094 37.0772 71.0017 37.0846 70.9872 37.0956C70.5382 37.4342 61.017 42.7128 58.5921 42.8871Z" fill="#211F1F"/>
</mask>
<g mask="url(#mask1_219_1055)">
<g id="Vector 56" filter="url(#filter11_ddii_219_1055)">
<path d="M58.5921 42.8871C56.8834 43.0099 53.7926 43.3519 50.6811 41.6396C50.3787 41.4732 49.8765 41.9146 50.0279 42.2248C50.5602 43.3157 51.1823 44.5291 51.7604 44.8308C52.8844 45.4173 56.1073 46.5202 59.1975 45.9666C59.2126 45.9639 59.2275 45.962 59.2428 45.9629C59.5762 45.9831 60.4085 46.6304 61.1479 46.9155C62.3174 47.2403 67.4376 44.4611 68.7282 43.7317C71.453 42.192 72.3298 41.0959 72.4749 40.7971C72.7015 40.3302 72.5489 39.2897 72.594 38.9886C72.6301 38.7474 72.8865 38.2671 72.987 38.0857C73.0132 38.0384 73.0274 37.986 73.0267 37.9319C73.0228 37.6386 72.9968 36.6167 72.8183 35.7948C72.8135 35.7726 72.811 35.7498 72.8108 35.7271C72.8012 34.1649 72.139 33.1036 72.1392 33.9206C72.1392 35.0504 71.8475 36.407 71.0304 37.0606C71.0117 37.0755 70.9988 37.0874 70.9794 37.1013C70.4384 37.4895 61.0043 42.7137 58.5921 42.8871Z" fill="#272727"/>
</g>
<g id="Rectangle 24" filter="url(#filter12_d_219_1055)">
<path d="M72.0238 34.5888C72.0274 34.5944 72.031 34.6002 72.0347 34.6061C72.0986 34.7083 72.1788 34.855 72.2442 35.0327C72.3752 35.3883 72.4442 35.8592 72.2159 36.3485C72.1507 36.4882 72.0255 36.64 71.8847 36.7273C71.7461 36.8134 71.6176 36.8251 71.5075 36.7451C71.4309 36.6895 71.3287 36.6459 71.2271 36.6115C71.1235 36.5764 71.0115 36.5479 70.9094 36.5256C70.8437 36.5112 70.7815 36.4992 70.7271 36.4896L72.0238 34.5888Z" stroke="white" stroke-opacity="0.9" stroke-width="0.246321"/>
</g>
<g id="Rectangle 23" filter="url(#filter13_d_219_1055)">
<path d="M52.9374 42.2514L58.9797 42.3424C58.9798 42.3426 58.9798 42.3427 58.9799 42.3429C58.9966 42.3913 59.0179 42.4616 59.0354 42.5472C59.0707 42.7194 59.0898 42.9482 59.031 43.1848C58.9728 43.4187 58.8374 43.6654 58.5544 43.8773C58.2694 44.0906 57.8284 44.2731 57.1532 44.3637C56.7522 44.4175 56.1974 44.4155 55.6273 44.3074C55.0569 44.1992 54.4801 43.9863 54.0274 43.6255C53.7828 43.4305 53.4822 43.0451 53.2371 42.697C53.1167 42.526 53.0121 42.3675 52.9374 42.2514Z" stroke="white" stroke-opacity="0.9" stroke-width="0.246321"/>
</g>
</g>
</g>
<g id="Vector 46" filter="url(#filter14_ddi_219_1055)">
<path d="M44.8634 35.2808C43.2438 34.6107 41.3394 28.8909 39.3304 25.3752C39.1797 25.1114 39.2928 24.7729 39.5748 24.6599L54.2354 18.7881C54.3572 18.7393 54.4909 18.7439 54.5991 18.818C55.0976 19.1598 56.7836 20.5247 61.0713 25.5825C62.3981 27.1475 62.5935 27.3419 63.2574 28.069C63.3561 28.1771 63.0024 28.6911 62.6569 28.9758C61.2358 30.1469 48.7699 36.8973 44.8634 35.2808Z" fill="url(#paint6_linear_219_1055)"/>
</g>
<g id="Vector 51" filter="url(#filter15_di_219_1055)">
<path d="M36.8289 25.7278C34.3687 24.3928 28.6531 21.6864 26.8623 20.8429C26.5825 20.7111 26.2568 20.8766 26.1976 21.1802C25.8929 22.7444 25.1296 26.8707 25.5141 27.0833C34.5249 32.0675 37.5623 33.5492 38.0332 33.775C38.8243 34.1544 40.7158 35.3557 40.3806 34.3794C39.857 32.854 38.3304 26.5425 36.8289 25.7278Z" fill="url(#paint7_linear_219_1055)"/>
</g>
<g id="Vector 46_2" filter="url(#filter16_f_219_1055)">
<path d="M50.5159 40.6452C46.93 39.1106 44.8801 37.109 42.6924 35.2891C49.0929 36.9749 62.4952 40.6824 62.2954 40.9565C62.0456 41.2992 61.1042 41.7254 57.9424 42.036C54.8295 42.3418 50.9265 40.8209 50.5159 40.6452Z" fill="url(#paint8_linear_219_1055)" fill-opacity="0.21"/>
</g>
<path id="Vector 52" d="M56.9082 32.1962L45.2057 22.3037C44.1174 22.7585 40.6786 24.1861 40.1741 24.3755C39.5205 24.621 39.2407 24.8309 39.2407 24.8309C39.1154 24.9561 39.0253 24.8315 39.2407 25.2179C39.6277 25.9123 40.1824 27.0616 40.9824 28.7583C42.394 31.7522 43.7363 35.0117 44.9553 35.3722C46.5718 35.8503 49.1939 35.2082 51.2846 34.5184C53.1535 33.9019 55.5221 32.7593 56.9082 32.1962Z" fill="#C4C4C4" fill-opacity="0.2"/>
<g id="Rectangle 4" filter="url(#filter17_di_219_1055)">
<path d="M27.7743 30.9555C27.7743 30.9071 27.7467 30.8628 27.7031 30.8416L26.0924 30.0585C26.0086 30.0178 25.9112 30.0788 25.9112 30.172L25.9112 30.4988C25.9112 30.5473 25.939 30.5916 25.9826 30.6127L27.5934 31.3927C27.6771 31.4333 27.7743 31.3723 27.7743 31.2791L27.7743 30.9555Z" fill="#323232"/>
</g>
<g id="Rectangle 5" filter="url(#filter18_di_219_1055)">
<path d="M21.8339 28.0532C21.8339 28.0047 21.8062 27.9605 21.7627 27.9393L20.1519 27.1562C20.0681 27.1154 19.9708 27.1764 19.9708 27.2697L19.9708 27.5964C19.9708 27.645 19.9986 27.6892 20.0422 27.7104L21.6529 28.4904C21.7367 28.5309 21.8339 28.4699 21.8339 28.3768L21.8339 28.0532Z" fill="#323232"/>
</g>
<g id="Vector 53" filter="url(#filter19_di_219_1055)">
<path d="M13.9088 14.1855L24.2774 19.2719C24.4872 19.3748 24.5931 19.6134 24.5332 19.8393C24.3056 20.6971 23.7793 22.8851 23.5583 25.5115C23.5248 25.9095 13.7256 21.1149 12.5994 20.2053C11.4313 19.2618 12.322 16.0834 13.3131 14.357C13.4324 14.149 13.6935 14.0799 13.9088 14.1855Z" fill="url(#paint9_linear_219_1055)"/>
</g>
<g id="Vector 54" filter="url(#filter20_di_219_1055)">
<path d="M11.575 15.6743C12.5461 14.0359 12.6455 13.4423 12.0255 13.3457C11.2031 13.7946 8.78495 17.1383 8.37388 18.6626C8.29584 18.952 8.91234 18.854 9.58782 18.377C10.2633 17.9001 10.3611 17.7224 11.575 15.6743Z" fill="url(#paint10_linear_219_1055)"/>
</g>
<g id="Vector 48_2" filter="url(#filter21_f_219_1055)">
<path d="M10.5812 24.5255L10.4023 24.4346C10.4626 24.4634 10.5222 24.4937 10.5812 24.5255L35.5195 37.2068C35.6581 37.2772 35.6532 37.4829 35.5167 37.5571C34.6871 38.008 33.2253 39.1482 33.1076 41.4218C33.1005 41.5571 32.9571 41.6456 32.8362 41.5845L15.0988 32.631C15.0349 32.5987 14.9964 32.5328 14.9931 32.4613C14.9358 31.2207 13.4704 26.0836 10.5812 24.5255Z" fill="url(#paint11_linear_219_1055)" fill-opacity="0.12"/>
</g>
</g>
</g>
</g>
<defs>
<filter id="filter0_f_219_1055" x="4.99751" y="24.6367" width="68.4024" height="33.4542" filterUnits="userSpaceOnUse" color-interpolation-filters="sRGB">
<feFlood flood-opacity="0" result="BackgroundImageFix"/>
<feBlend mode="normal" in="SourceGraphic" in2="BackgroundImageFix" result="shape"/>
<feGaussianBlur stdDeviation="0.36062" result="effect1_foregroundBlur_219_1055"/>
</filter>
<filter id="filter1_i_219_1055" x="34.2803" y="39.8125" width="7.53516" height="10.5645" filterUnits="userSpaceOnUse" color-interpolation-filters="sRGB">
<feFlood flood-opacity="0" result="BackgroundImageFix"/>
<feBlend mode="normal" in="SourceGraphic" in2="BackgroundImageFix" result="shape"/>
<feColorMatrix in="SourceAlpha" type="matrix" values="0 0 0 0 0 0 0 0 0 0 0 0 0 0 0 0 0 0 127 0" result="hardAlpha"/>
<feMorphology radius="0.0846167" operator="erode" in="SourceAlpha" result="effect1_innerShadow_219_1055"/>
<feOffset/>
<feGaussianBlur stdDeviation="0.0423083"/>
<feComposite in2="hardAlpha" operator="arithmetic" k2="-1" k3="1"/>
<feColorMatrix type="matrix" values="0 0 0 0 0 0 0 0 0 0 0 0 0 0 0 0 0 0 0.25 0"/>
<feBlend mode="normal" in2="shape" result="effect1_innerShadow_219_1055"/>
</filter>
<filter id="filter2_di_219_1055" x="34.6631" y="40.6882" width="6.56732" height="8.96545" filterUnits="userSpaceOnUse" color-interpolation-filters="sRGB">
<feFlood flood-opacity="0" result="BackgroundImageFix"/>
<feColorMatrix in="SourceAlpha" type="matrix" values="0 0 0 0 0 0 0 0 0 0 0 0 0 0 0 0 0 0 127 0" result="hardAlpha"/>
<feOffset dy="0.0338467"/>
<feGaussianBlur stdDeviation="0.025385"/>
<feColorMatrix type="matrix" values="0 0 0 0 1 0 0 0 0 1 0 0 0 0 1 0 0 0 0.41 0"/>
<feBlend mode="normal" in2="BackgroundImageFix" result="effect1_dropShadow_219_1055"/>
<feBlend mode="normal" in="SourceGraphic" in2="effect1_dropShadow_219_1055" result="shape"/>
<feColorMatrix in="SourceAlpha" type="matrix" values="0 0 0 0 0 0 0 0 0 0 0 0 0 0 0 0 0 0 127 0" result="hardAlpha"/>
<feOffset dx="-0.25385" dy="0.169233"/>
<feGaussianBlur stdDeviation="0.126925"/>
<feComposite in2="hardAlpha" operator="arithmetic" k2="-1" k3="1"/>
<feColorMatrix type="matrix" values="0 0 0 0 0 0 0 0 0 0 0 0 0 0 0 0 0 0 0.25 0"/>
<feBlend mode="normal" in2="shape" result="effect2_innerShadow_219_1055"/>
</filter>
<filter id="filter3_i_219_1055" x="34.7246" y="39.8726" width="6.72656" height="10.4429" filterUnits="userSpaceOnUse" color-interpolation-filters="sRGB">
<feFlood flood-opacity="0" result="BackgroundImageFix"/>
<feBlend mode="normal" in="SourceGraphic" in2="BackgroundImageFix" result="shape"/>
<feColorMatrix in="SourceAlpha" type="matrix" values="0 0 0 0 0 0 0 0 0 0 0 0 0 0 0 0 0 0 127 0" result="hardAlpha"/>
<feMorphology radius="0.112753" operator="erode" in="SourceAlpha" result="effect1_innerShadow_219_1055"/>
<feOffset/>
<feGaussianBlur stdDeviation="0.0563763"/>
<feComposite in2="hardAlpha" operator="arithmetic" k2="-1" k3="1"/>
<feColorMatrix type="matrix" values="0 0 0 0 0 0 0 0 0 0 0 0 0 0 0 0 0 0 0.25 0"/>
<feBlend mode="normal" in2="shape" result="effect1_innerShadow_219_1055"/>
</filter>
<filter id="filter4_di_219_1055" x="35.4525" y="41.2155" width="5.17176" height="7.83622" filterUnits="userSpaceOnUse" color-interpolation-filters="sRGB">
<feFlood flood-opacity="0" result="BackgroundImageFix"/>
<feColorMatrix in="SourceAlpha" type="matrix" values="0 0 0 0 0 0 0 0 0 0 0 0 0 0 0 0 0 0 127 0" result="hardAlpha"/>
<feOffset dy="0.0384533"/>
<feGaussianBlur stdDeviation="0.0240333"/>
<feColorMatrix type="matrix" values="0 0 0 0 1 0 0 0 0 1 0 0 0 0 1 0 0 0 0.59 0"/>
<feBlend mode="normal" in2="BackgroundImageFix" result="effect1_dropShadow_219_1055"/>
<feBlend mode="normal" in="SourceGraphic" in2="effect1_dropShadow_219_1055" result="shape"/>
<feColorMatrix in="SourceAlpha" type="matrix" values="0 0 0 0 0 0 0 0 0 0 0 0 0 0 0 0 0 0 127 0" result="hardAlpha"/>
<feOffset dx="-0.1442" dy="0.0961333"/>
<feGaussianBlur stdDeviation="0.0721"/>
<feComposite in2="hardAlpha" operator="arithmetic" k2="-1" k3="1"/>
<feColorMatrix type="matrix" values="0 0 0 0 0 0 0 0 0 0 0 0 0 0 0 0 0 0 0.25 0"/>
<feBlend mode="normal" in2="shape" result="effect2_innerShadow_219_1055"/>
</filter>
<filter id="filter5_i_219_1055" x="8.50879" y="28.5259" width="5.64551" height="7.91455" filterUnits="userSpaceOnUse" color-interpolation-filters="sRGB">
<feFlood flood-opacity="0" result="BackgroundImageFix"/>
<feBlend mode="normal" in="SourceGraphic" in2="BackgroundImageFix" result="shape"/>
<feColorMatrix in="SourceAlpha" type="matrix" values="0 0 0 0 0 0 0 0 0 0 0 0 0 0 0 0 0 0 127 0" result="hardAlpha"/>
<feMorphology radius="0.0846167" operator="erode" in="SourceAlpha" result="effect1_innerShadow_219_1055"/>
<feOffset/>
<feGaussianBlur stdDeviation="0.0423083"/>
<feComposite in2="hardAlpha" operator="arithmetic" k2="-1" k3="1"/>
<feColorMatrix type="matrix" values="0 0 0 0 0 0 0 0 0 0 0 0 0 0 0 0 0 0 0.25 0"/>
<feBlend mode="normal" in2="shape" result="effect1_innerShadow_219_1055"/>
</filter>
<filter id="filter6_di_219_1055" x="8.72955" y="29.1779" width="4.99603" height="6.76331" filterUnits="userSpaceOnUse" color-interpolation-filters="sRGB">
<feFlood flood-opacity="0" result="BackgroundImageFix"/>
<feColorMatrix in="SourceAlpha" type="matrix" values="0 0 0 0 0 0 0 0 0 0 0 0 0 0 0 0 0 0 127 0" result="hardAlpha"/>
<feOffset dy="0.0338467"/>
<feGaussianBlur stdDeviation="0.025385"/>
<feColorMatrix type="matrix" values="0 0 0 0 1 0 0 0 0 1 0 0 0 0 1 0 0 0 0.41 0"/>
<feBlend mode="normal" in2="BackgroundImageFix" result="effect1_dropShadow_219_1055"/>
<feBlend mode="normal" in="SourceGraphic" in2="effect1_dropShadow_219_1055" result="shape"/>
<feColorMatrix in="SourceAlpha" type="matrix" values="0 0 0 0 0 0 0 0 0 0 0 0 0 0 0 0 0 0 127 0" result="hardAlpha"/>
<feOffset dx="-0.25385" dy="0.169233"/>
<feGaussianBlur stdDeviation="0.126925"/>
<feComposite in2="hardAlpha" operator="arithmetic" k2="-1" k3="1"/>
<feColorMatrix type="matrix" values="0 0 0 0 0 0 0 0 0 0 0 0 0 0 0 0 0 0 0.25 0"/>
<feBlend mode="normal" in2="shape" result="effect2_innerShadow_219_1055"/>
</filter>
<filter id="filter7_i_219_1055" x="8.71973" y="28.6851" width="4.8623" height="7.93408" filterUnits="userSpaceOnUse" color-interpolation-filters="sRGB">
<feFlood flood-opacity="0" result="BackgroundImageFix"/>
<feBlend mode="normal" in="SourceGraphic" in2="BackgroundImageFix" result="shape"/>
<feColorMatrix in="SourceAlpha" type="matrix" values="0 0 0 0 0 0 0 0 0 0 0 0 0 0 0 0 0 0 127 0" result="hardAlpha"/>
<feMorphology radius="0.112753" operator="erode" in="SourceAlpha" result="effect1_innerShadow_219_1055"/>
<feOffset/>
<feGaussianBlur stdDeviation="0.0563763"/>
<feComposite in2="hardAlpha" operator="arithmetic" k2="-1" k3="1"/>
<feColorMatrix type="matrix" values="0 0 0 0 0 0 0 0 0 0 0 0 0 0 0 0 0 0 0.25 0"/>
<feBlend mode="normal" in2="shape" result="effect1_innerShadow_219_1055"/>
</filter>
<filter id="filter8_di_219_1055" x="9.20834" y="29.7057" width="3.79188" height="5.97879" filterUnits="userSpaceOnUse" color-interpolation-filters="sRGB">
<feFlood flood-opacity="0" result="BackgroundImageFix"/>
<feColorMatrix in="SourceAlpha" type="matrix" values="0 0 0 0 0 0 0 0 0 0 0 0 0 0 0 0 0 0 127 0" result="hardAlpha"/>
<feOffset dy="0.0384533"/>
<feGaussianBlur stdDeviation="0.0240333"/>
<feColorMatrix type="matrix" values="0 0 0 0 1 0 0 0 0 1 0 0 0 0 1 0 0 0 0.59 0"/>
<feBlend mode="normal" in2="BackgroundImageFix" result="effect1_dropShadow_219_1055"/>
<feBlend mode="normal" in="SourceGraphic" in2="effect1_dropShadow_219_1055" result="shape"/>
<feColorMatrix in="SourceAlpha" type="matrix" values="0 0 0 0 0 0 0 0 0 0 0 0 0 0 0 0 0 0 127 0" result="hardAlpha"/>
<feOffset dx="-0.1442" dy="0.0961333"/>
<feGaussianBlur stdDeviation="0.0721"/>
<feComposite in2="hardAlpha" operator="arithmetic" k2="-1" k3="1"/>
<feColorMatrix type="matrix" values="0 0 0 0 0 0 0 0 0 0 0 0 0 0 0 0 0 0 0.25 0"/>
<feBlend mode="normal" in2="shape" result="effect2_innerShadow_219_1055"/>
</filter>
<filter id="filter9_ii_219_1055" x="6.54199" y="7.37581" width="67.2742" height="46.3493" filterUnits="userSpaceOnUse" color-interpolation-filters="sRGB">
<feFlood flood-opacity="0" result="BackgroundImageFix"/>
<feBlend mode="normal" in="SourceGraphic" in2="BackgroundImageFix" result="shape"/>
<feColorMatrix in="SourceAlpha" type="matrix" values="0 0 0 0 0 0 0 0 0 0 0 0 0 0 0 0 0 0 127 0" result="hardAlpha"/>
<feOffset dx="0.676515" dy="-0.902021"/>
<feGaussianBlur stdDeviation="2.70606"/>
<feComposite in2="hardAlpha" operator="arithmetic" k2="-1" k3="1"/>
<feColorMatrix type="matrix" values="0 0 0 0 0 0 0 0 0 0 0 0 0 0 0 0 0 0 0.07 0"/>
<feBlend mode="normal" in2="shape" result="effect1_innerShadow_219_1055"/>
<feColorMatrix in="SourceAlpha" type="matrix" values="0 0 0 0 0 0 0 0 0 0 0 0 0 0 0 0 0 0 127 0" result="hardAlpha"/>
<feOffset dy="-0.112753"/>
<feGaussianBlur stdDeviation="0.225505"/>
<feComposite in2="hardAlpha" operator="arithmetic" k2="-1" k3="1"/>
<feColorMatrix type="matrix" values="0 0 0 0 0 0 0 0 0 0 0 0 0 0 0 0 0 0 0.09 0"/>
<feBlend mode="normal" in2="effect1_innerShadow_219_1055" result="effect2_innerShadow_219_1055"/>
</filter>
<filter id="filter10_ddii_219_1055" x="49.897" y="33.4832" width="23.2324" height="14.1689" filterUnits="userSpaceOnUse" color-interpolation-filters="sRGB">
<feFlood flood-opacity="0" result="BackgroundImageFix"/>
<feColorMatrix in="SourceAlpha" type="matrix" values="0 0 0 0 0 0 0 0 0 0 0 0 0 0 0 0 0 0 127 0" result="hardAlpha"/>
<feOffset dy="0.0772669"/>
<feGaussianBlur stdDeviation="0.0515112"/>
<feColorMatrix type="matrix" values="0 0 0 0 0 0 0 0 0 0 0 0 0 0 0 0 0 0 0.57 0"/>
<feBlend mode="normal" in2="BackgroundImageFix" result="effect1_dropShadow_219_1055"/>
<feColorMatrix in="SourceAlpha" type="matrix" values="0 0 0 0 0 0 0 0 0 0 0 0 0 0 0 0 0 0 127 0" result="hardAlpha"/>
<feOffset dy="-0.0515112"/>
<feGaussianBlur stdDeviation="0.0515112"/>
<feColorMatrix type="matrix" values="0 0 0 0 0 0 0 0 0 0 0 0 0 0 0 0 0 0 1 0"/>
<feBlend mode="normal" in2="effect1_dropShadow_219_1055" result="effect2_dropShadow_219_1055"/>
<feBlend mode="normal" in="SourceGraphic" in2="effect2_dropShadow_219_1055" result="shape"/>
<feColorMatrix in="SourceAlpha" type="matrix" values="0 0 0 0 0 0 0 0 0 0 0 0 0 0 0 0 0 0 127 0" result="hardAlpha"/>
<feOffset dy="0.710142"/>
<feGaussianBlur stdDeviation="0.723712"/>
<feComposite in2="hardAlpha" operator="arithmetic" k2="-1" k3="1"/>
<feColorMatrix type="matrix" values="0 0 0 0 0 0 0 0 0 0 0 0 0 0 0 0 0 0 1 0"/>
<feBlend mode="normal" in2="shape" result="effect3_innerShadow_219_1055"/>
<feColorMatrix in="SourceAlpha" type="matrix" values="0 0 0 0 0 0 0 0 0 0 0 0 0 0 0 0 0 0 127 0" result="hardAlpha"/>
<feOffset dy="-0.0773848"/>
<feGaussianBlur stdDeviation="0.0773848"/>
<feComposite in2="hardAlpha" operator="arithmetic" k2="-1" k3="1"/>
<feColorMatrix type="matrix" values="0 0 0 0 0 0 0 0 0 0 0 0 0 0 0 0 0 0 1 0"/>
<feBlend mode="normal" in2="effect3_innerShadow_219_1055" result="effect4_innerShadow_219_1055"/>
</filter>
<filter id="filter11_ddii_219_1055" x="49.897" y="33.4832" width="23.2324" height="14.1689" filterUnits="userSpaceOnUse" color-interpolation-filters="sRGB">
<feFlood flood-opacity="0" result="BackgroundImageFix"/>
<feColorMatrix in="SourceAlpha" type="matrix" values="0 0 0 0 0 0 0 0 0 0 0 0 0 0 0 0 0 0 127 0" result="hardAlpha"/>
<feOffset dy="0.0772669"/>
<feGaussianBlur stdDeviation="0.0515112"/>
<feColorMatrix type="matrix" values="0 0 0 0 0 0 0 0 0 0 0 0 0 0 0 0 0 0 0.57 0"/>
<feBlend mode="normal" in2="BackgroundImageFix" result="effect1_dropShadow_219_1055"/>
<feColorMatrix in="SourceAlpha" type="matrix" values="0 0 0 0 0 0 0 0 0 0 0 0 0 0 0 0 0 0 127 0" result="hardAlpha"/>
<feOffset dy="-0.0515112"/>
<feGaussianBlur stdDeviation="0.0515112"/>
<feColorMatrix type="matrix" values="0 0 0 0 0 0 0 0 0 0 0 0 0 0 0 0 0 0 1 0"/>
<feBlend mode="normal" in2="effect1_dropShadow_219_1055" result="effect2_dropShadow_219_1055"/>
<feBlend mode="normal" in="SourceGraphic" in2="effect2_dropShadow_219_1055" result="shape"/>
<feColorMatrix in="SourceAlpha" type="matrix" values="0 0 0 0 0 0 0 0 0 0 0 0 0 0 0 0 0 0 127 0" result="hardAlpha"/>
<feOffset dy="0.710142"/>
<feGaussianBlur stdDeviation="0.723712"/>
<feComposite in2="hardAlpha" operator="arithmetic" k2="-1" k3="1"/>
<feColorMatrix type="matrix" values="0 0 0 0 0 0 0 0 0 0 0 0 0 0 0 0 0 0 1 0"/>
<feBlend mode="normal" in2="shape" result="effect3_innerShadow_219_1055"/>
<feColorMatrix in="SourceAlpha" type="matrix" values="0 0 0 0 0 0 0 0 0 0 0 0 0 0 0 0 0 0 127 0" result="hardAlpha"/>
<feOffset dy="-0.0773848"/>
<feGaussianBlur stdDeviation="0.0773848"/>
<feComposite in2="hardAlpha" operator="arithmetic" k2="-1" k3="1"/>
<feColorMatrix type="matrix" values="0 0 0 0 0 0 0 0 0 0 0 0 0 0 0 0 0 0 1 0"/>
<feBlend mode="normal" in2="effect3_innerShadow_219_1055" result="effect4_innerShadow_219_1055"/>
</filter>
<filter id="filter12_d_219_1055" x="70.4957" y="34.3726" width="2.17664" height="2.75379" filterUnits="userSpaceOnUse" color-interpolation-filters="sRGB">
<feFlood flood-opacity="0" result="BackgroundImageFix"/>
<feColorMatrix in="SourceAlpha" type="matrix" values="0 0 0 0 0 0 0 0 0 0 0 0 0 0 0 0 0 0 127 0" result="hardAlpha"/>
<feOffset dx="0.082107" dy="0.101992"/>
<feGaussianBlur stdDeviation="0.0509961"/>
<feColorMatrix type="matrix" values="0 0 0 0 1 0 0 0 0 1 0 0 0 0 1 0 0 0 0.24 0"/>
<feBlend mode="normal" in2="BackgroundImageFix" result="effect1_dropShadow_219_1055"/>
<feBlend mode="normal" in="SourceGraphic" in2="effect1_dropShadow_219_1055" result="shape"/>
</filter>
<filter id="filter13_d_219_1055" x="52.692" y="42.125" width="6.68348" height="2.60047" filterUnits="userSpaceOnUse" color-interpolation-filters="sRGB">
<feFlood flood-opacity="0" result="BackgroundImageFix"/>
<feColorMatrix in="SourceAlpha" type="matrix" values="0 0 0 0 0 0 0 0 0 0 0 0 0 0 0 0 0 0 127 0" result="hardAlpha"/>
<feOffset dx="0.082107" dy="0.101992"/>
<feGaussianBlur stdDeviation="0.0509961"/>
<feColorMatrix type="matrix" values="0 0 0 0 1 0 0 0 0 1 0 0 0 0 1 0 0 0 0.24 0"/>
<feBlend mode="normal" in2="BackgroundImageFix" result="effect1_dropShadow_219_1055"/>
<feBlend mode="normal" in="SourceGraphic" in2="effect1_dropShadow_219_1055" result="shape"/>
</filter>
<filter id="filter14_ddi_219_1055" x="39.0111" y="18.5664" width="24.3896" height="17.1523" filterUnits="userSpaceOnUse" color-interpolation-filters="sRGB">
<feFlood flood-opacity="0" result="BackgroundImageFix"/>
<feColorMatrix in="SourceAlpha" type="matrix" values="0 0 0 0 0 0 0 0 0 0 0 0 0 0 0 0 0 0 127 0" result="hardAlpha"/>
<feOffset dx="-0.126277" dy="0.0631387"/>
<feGaussianBlur stdDeviation="0.0631387"/>
<feColorMatrix type="matrix" values="0 0 0 0 1 0 0 0 0 1 0 0 0 0 1 0 0 0 0.28 0"/>
<feBlend mode="normal" in2="BackgroundImageFix" result="effect1_dropShadow_219_1055"/>
<feColorMatrix in="SourceAlpha" type="matrix" values="0 0 0 0 0 0 0 0 0 0 0 0 0 0 0 0 0 0 127 0" result="hardAlpha"/>
<feOffset dy="-0.0631387"/>
<feGaussianBlur stdDeviation="0.0631387"/>
<feColorMatrix type="matrix" values="0 0 0 0 1 0 0 0 0 1 0 0 0 0 1 0 0 0 0.56 0"/>
<feBlend mode="normal" in2="effect1_dropShadow_219_1055" result="effect2_dropShadow_219_1055"/>
<feBlend mode="normal" in="SourceGraphic" in2="effect2_dropShadow_219_1055" result="shape"/>
<feColorMatrix in="SourceAlpha" type="matrix" values="0 0 0 0 0 0 0 0 0 0 0 0 0 0 0 0 0 0 127 0" result="hardAlpha"/>
<feOffset dx="-0.0631387" dy="0.189416"/>
<feGaussianBlur stdDeviation="0.094708"/>
<feComposite in2="hardAlpha" operator="arithmetic" k2="-1" k3="1"/>
<feColorMatrix type="matrix" values="0 0 0 0 0 0 0 0 0 0 0 0 0 0 0 0 0 0 0.75 0"/>
<feBlend mode="normal" in2="shape" result="effect3_innerShadow_219_1055"/>
</filter>
<filter id="filter15_di_219_1055" x="24.9729" y="20.7974" width="15.5123" height="14.2712" filterUnits="userSpaceOnUse" color-interpolation-filters="sRGB">
<feFlood flood-opacity="0" result="BackgroundImageFix"/>
<feColorMatrix in="SourceAlpha" type="matrix" values="0 0 0 0 0 0 0 0 0 0 0 0 0 0 0 0 0 0 127 0" result="hardAlpha"/>
<feOffset dy="0.0652936"/>
<feGaussianBlur stdDeviation="0.0326468"/>
<feColorMatrix type="matrix" values="0 0 0 0 0.925374 0 0 0 0 0.925374 0 0 0 0 0.925374 0 0 0 0.37 0"/>
<feBlend mode="normal" in2="BackgroundImageFix" result="effect1_dropShadow_219_1055"/>
<feBlend mode="normal" in="SourceGraphic" in2="effect1_dropShadow_219_1055" result="shape"/>
<feColorMatrix in="SourceAlpha" type="matrix" values="0 0 0 0 0 0 0 0 0 0 0 0 0 0 0 0 0 0 127 0" result="hardAlpha"/>
<feOffset dx="-0.435313" dy="0.315101"/>
<feGaussianBlur stdDeviation="0.217657"/>
<feComposite in2="hardAlpha" operator="arithmetic" k2="-1" k3="1"/>
<feColorMatrix type="matrix" values="0 0 0 0 0 0 0 0 0 0 0 0 0 0 0 0 0 0 0.63 0"/>
<feBlend mode="normal" in2="shape" result="effect2_innerShadow_219_1055"/>
</filter>
<filter id="filter16_f_219_1055" x="40.9245" y="33.5212" width="23.1412" height="10.3234" filterUnits="userSpaceOnUse" color-interpolation-filters="sRGB">
<feFlood flood-opacity="0" result="BackgroundImageFix"/>
<feBlend mode="normal" in="SourceGraphic" in2="BackgroundImageFix" result="shape"/>
<feGaussianBlur stdDeviation="0.883942" result="effect1_foregroundBlur_219_1055"/>
</filter>
<filter id="filter17_di_219_1055" x="25.8798" y="29.9828" width="1.92591" height="1.57907" filterUnits="userSpaceOnUse" color-interpolation-filters="sRGB">
<feFlood flood-opacity="0" result="BackgroundImageFix"/>
<feColorMatrix in="SourceAlpha" type="matrix" values="0 0 0 0 0 0 0 0 0 0 0 0 0 0 0 0 0 0 127 0" result="hardAlpha"/>
<feOffset dy="-0.0313154"/>
<feGaussianBlur stdDeviation="0.0156577"/>
<feColorMatrix type="matrix" values="0 0 0 0 0.78755 0 0 0 0 0.78755 0 0 0 0 0.78755 0 0 0 0.19 0"/>
<feBlend mode="normal" in2="BackgroundImageFix" result="effect1_dropShadow_219_1055"/>
<feBlend mode="normal" in="SourceGraphic" in2="effect1_dropShadow_219_1055" result="shape"/>
<feColorMatrix in="SourceAlpha" type="matrix" values="0 0 0 0 0 0 0 0 0 0 0 0 0 0 0 0 0 0 127 0" result="hardAlpha"/>
<feOffset dy="0.156577"/>
<feGaussianBlur stdDeviation="0.0782885"/>
<feComposite in2="hardAlpha" operator="arithmetic" k2="-1" k3="1"/>
<feColorMatrix type="matrix" values="0 0 0 0 0 0 0 0 0 0 0 0 0 0 0 0 0 0 0.74 0"/>
<feBlend mode="normal" in2="shape" result="effect2_innerShadow_219_1055"/>
</filter>
<filter id="filter18_di_219_1055" x="19.9394" y="27.0804" width="1.92591" height="1.57907" filterUnits="userSpaceOnUse" color-interpolation-filters="sRGB">
<feFlood flood-opacity="0" result="BackgroundImageFix"/>
<feColorMatrix in="SourceAlpha" type="matrix" values="0 0 0 0 0 0 0 0 0 0 0 0 0 0 0 0 0 0 127 0" result="hardAlpha"/>
<feOffset dy="-0.0313154"/>
<feGaussianBlur stdDeviation="0.0156577"/>
<feColorMatrix type="matrix" values="0 0 0 0 0.78755 0 0 0 0 0.78755 0 0 0 0 0.78755 0 0 0 0.19 0"/>
<feBlend mode="normal" in2="BackgroundImageFix" result="effect1_dropShadow_219_1055"/>
<feBlend mode="normal" in="SourceGraphic" in2="effect1_dropShadow_219_1055" result="shape"/>
<feColorMatrix in="SourceAlpha" type="matrix" values="0 0 0 0 0 0 0 0 0 0 0 0 0 0 0 0 0 0 127 0" result="hardAlpha"/>
<feOffset dy="0.156577"/>
<feGaussianBlur stdDeviation="0.0782885"/>
<feComposite in2="hardAlpha" operator="arithmetic" k2="-1" k3="1"/>
<feColorMatrix type="matrix" values="0 0 0 0 0 0 0 0 0 0 0 0 0 0 0 0 0 0 0.74 0"/>
<feBlend mode="normal" in2="shape" result="effect2_innerShadow_219_1055"/>
</filter>
<filter id="filter19_di_219_1055" x="11.6096" y="14.1367" width="13.0055" height="11.7135" filterUnits="userSpaceOnUse" color-interpolation-filters="sRGB">
<feFlood flood-opacity="0" result="BackgroundImageFix"/>
<feColorMatrix in="SourceAlpha" type="matrix" values="0 0 0 0 0 0 0 0 0 0 0 0 0 0 0 0 0 0 127 0" result="hardAlpha"/>
<feOffset dy="0.0652936"/>
<feGaussianBlur stdDeviation="0.0326468"/>
<feColorMatrix type="matrix" values="0 0 0 0 0.925374 0 0 0 0 0.925374 0 0 0 0 0.925374 0 0 0 0.37 0"/>
<feBlend mode="normal" in2="BackgroundImageFix" result="effect1_dropShadow_219_1055"/>
<feBlend mode="normal" in="SourceGraphic" in2="effect1_dropShadow_219_1055" result="shape"/>
<feColorMatrix in="SourceAlpha" type="matrix" values="0 0 0 0 0 0 0 0 0 0 0 0 0 0 0 0 0 0 127 0" result="hardAlpha"/>
<feOffset dx="-0.435313" dy="0.315101"/>
<feGaussianBlur stdDeviation="0.217657"/>
<feComposite in2="hardAlpha" operator="arithmetic" k2="-1" k3="1"/>
<feColorMatrix type="matrix" values="0 0 0 0 0 0 0 0 0 0 0 0 0 0 0 0 0 0 0.63 0"/>
<feBlend mode="normal" in2="shape" result="effect2_innerShadow_219_1055"/>
</filter>
<filter id="filter20_di_219_1055" x="8.04897" y="13.3457" width="4.44834" height="5.79771" filterUnits="userSpaceOnUse" color-interpolation-filters="sRGB">
<feFlood flood-opacity="0" result="BackgroundImageFix"/>
<feColorMatrix in="SourceAlpha" type="matrix" values="0 0 0 0 0 0 0 0 0 0 0 0 0 0 0 0 0 0 127 0" result="hardAlpha"/>
<feOffset dy="0.0822704"/>
<feGaussianBlur stdDeviation="0.0411352"/>
<feColorMatrix type="matrix" values="0 0 0 0 0.925374 0 0 0 0 0.925374 0 0 0 0 0.925374 0 0 0 0.37 0"/>
<feBlend mode="normal" in2="BackgroundImageFix" result="effect1_dropShadow_219_1055"/>
<feBlend mode="normal" in="SourceGraphic" in2="effect1_dropShadow_219_1055" result="shape"/>
<feColorMatrix in="SourceAlpha" type="matrix" values="0 0 0 0 0 0 0 0 0 0 0 0 0 0 0 0 0 0 127 0" result="hardAlpha"/>
<feOffset dx="-0.318221" dy="0.397776"/>
<feGaussianBlur stdDeviation="0.15911"/>
<feComposite in2="hardAlpha" operator="arithmetic" k2="-1" k3="1"/>
<feColorMatrix type="matrix" values="0 0 0 0 0 0 0 0 0 0 0 0 0 0 0 0 0 0 0.8 0"/>
<feBlend mode="normal" in2="shape" result="effect2_innerShadow_219_1055"/>
</filter>
<filter id="filter21_f_219_1055" x="10.1295" y="24.1618" width="25.7644" height="17.715" filterUnits="userSpaceOnUse" color-interpolation-filters="sRGB">
<feFlood flood-opacity="0" result="BackgroundImageFix"/>
<feBlend mode="normal" in="SourceGraphic" in2="BackgroundImageFix" result="shape"/>
<feGaussianBlur stdDeviation="0.1364" result="effect1_foregroundBlur_219_1055"/>
</filter>
<linearGradient id="paint0_linear_219_1055" x1="7.7617" y1="8.5263" x2="8.14811" y2="2.77827" gradientUnits="userSpaceOnUse">
<stop stop-color="#3F3F3F"/>
<stop offset="1" stop-color="#5C5C5C"/>
</linearGradient>
<linearGradient id="paint1_linear_219_1055" x1="7.27482" y1="8.22202" x2="7.65809" y2="2.68058" gradientUnits="userSpaceOnUse">
<stop stop-color="#AAAAAA"/>
<stop offset="1" stop-color="#C2C2C2"/>
</linearGradient>
<linearGradient id="paint2_linear_219_1055" x1="5.8146" y1="6.38739" x2="6.10407" y2="2.08131" gradientUnits="userSpaceOnUse">
<stop stop-color="#3F3F3F"/>
<stop offset="1" stop-color="#5C5C5C"/>
</linearGradient>
<linearGradient id="paint3_linear_219_1055" x1="5.44985" y1="6.15943" x2="5.73698" y2="2.00813" gradientUnits="userSpaceOnUse">
<stop stop-color="#AAAAAA"/>
<stop offset="1" stop-color="#C2C2C2"/>
</linearGradient>
<linearGradient id="paint4_linear_219_1055" x1="31.6104" y1="41.4295" x2="47.5341" y2="9.28534" gradientUnits="userSpaceOnUse">
<stop stop-color="#CECBCB"/>
<stop offset="1" stop-color="white"/>
</linearGradient>
<linearGradient id="paint5_linear_219_1055" x1="33.657" y1="48.7933" x2="9.0707" y2="7.44547" gradientUnits="userSpaceOnUse">
<stop stop-color="#E1E1E1"/>
<stop offset="1" stop-color="white"/>
</linearGradient>
<linearGradient id="paint6_linear_219_1055" x1="60.5194" y1="14.4707" x2="44.2484" y2="28.1791" gradientUnits="userSpaceOnUse">
<stop stop-color="#E8EAE9"/>
<stop offset="0.498386" stop-color="#707072"/>
<stop offset="1" stop-color="#2F3032"/>
</linearGradient>
<linearGradient id="paint7_linear_219_1055" x1="15.5954" y1="63.0172" x2="17.488" y2="22.658" gradientUnits="userSpaceOnUse">
<stop stop-color="#E8EAE9"/>
<stop offset="0.498386" stop-color="#707072"/>
<stop offset="1" stop-color="#2F3032"/>
</linearGradient>
<linearGradient id="paint8_linear_219_1055" x1="51.9918" y1="42.656" x2="53.384" y2="38.1378" gradientUnits="userSpaceOnUse">
<stop stop-color="#ECEAEA"/>
<stop offset="1" stop-color="white" stop-opacity="0"/>
</linearGradient>
<linearGradient id="paint9_linear_219_1055" x1="4.56551" y1="47.0771" x2="6.07423" y2="15.6194" gradientUnits="userSpaceOnUse">
<stop stop-color="#E8EAE9"/>
<stop offset="0.498386" stop-color="#707072"/>
<stop offset="1" stop-color="#2F3032"/>
</linearGradient>
<linearGradient id="paint10_linear_219_1055" x1="12.3956" y1="26.6148" x2="6.16878" y2="21.9047" gradientUnits="userSpaceOnUse">
<stop stop-color="#E8EAE9"/>
<stop offset="0.498386" stop-color="#707072"/>
<stop offset="1" stop-color="#2F3032"/>
</linearGradient>
<linearGradient id="paint11_linear_219_1055" x1="19.5064" y1="39.7914" x2="24.3566" y2="30.2928" gradientUnits="userSpaceOnUse">
<stop stop-color="#040404"/>
<stop offset="1" stop-color="#3C3C3C" stop-opacity="0"/>
</linearGradient>
</defs>
</svg>
